<svg width="42" height="38" viewBox="0 0 42 38" fill="none" xmlns="http://www.w3.org/2000/svg">
<path id="Icon" d="M29 9C29 7.14006 29 6.21008 28.7956 5.44709C28.2408 3.37653 26.6235 1.75925 24.5529 1.20445C23.7899 1 22.8599 1 21 1C19.1401 1 18.2101 1 17.4471 1.20445C15.3765 1.75925 13.7592 3.37653 13.2044 5.44709C13 6.21008 13 7.14006 13 9M7.4 37H34.6C36.8402 37 37.9603 37 38.816 36.564C39.5686 36.1805 40.1805 35.5686 40.564 34.816C41 33.9603 41 32.8402 41 30.6V15.4C41 13.1598 41 12.0397 40.564 11.184C40.1805 10.4314 39.5686 9.81947 38.816 9.43597C37.9603 9 36.8402 9 34.6 9H7.4C5.15979 9 4.03968 9 3.18404 9.43597C2.43139 9.81947 1.81947 10.4314 1.43597 11.184C1 12.0397 1 13.1598 1 15.4V30.6C1 32.8402 1 33.9603 1.43597 34.816C1.81947 35.5686 2.43139 36.1805 3.18404 36.564C4.03968 37 5.15979 37 7.4 37Z" stroke="#F2F2F2" stroke-linecap="round" stroke-linejoin="round"/>
</svg>
