<svg xmlns="http://www.w3.org/2000/svg" width="24" height="28" viewBox="0 0 24 28" fill="none">
    <path d="M5.625 13.3056V16.7778M5.625 13.3056V4.97222C5.625 3.82163 6.57639 2.88889 7.75 2.88889C8.92361 2.88889 9.875 3.82163 9.875 4.97222M5.625 13.3056C5.625 12.155 4.67361 11.2222 3.5 11.2222C2.3264 11.2222 1.375 12.155 1.375 13.3056V16.0833C1.375 21.8363 6.13197 26.5 12 26.5C17.868 26.5 22.625 21.8363 22.625 16.0833V9.13889C22.625 7.9883 21.6736 7.05556 20.5 7.05556C19.3264 7.05556 18.375 7.9883 18.375 9.13889M9.875 4.97222V12.6111M9.875 4.97222V3.58333C9.875 2.43274 10.8264 1.5 12 1.5C13.1736 1.5 14.125 2.43274 14.125 3.58333V4.97222M14.125 4.97222V12.6111M14.125 4.97222C14.125 3.82163 15.0764 2.88889 16.25 2.88889C17.4236 2.88889 18.375 3.82163 18.375 4.97222V9.13889M18.375 9.13889V12.6111" stroke="#DCDCDC" stroke-width="2" stroke-linecap="round" stroke-linejoin="round"/>
</svg>