<svg xmlns="http://www.w3.org/2000/svg" width="22" height="28" viewBox="0 0 22 28" fill="none">
    <path d="M10.1275 25.7984C10.4043 25.959 10.5426 26.0393 10.7379 26.081C10.8894 26.1133 11.1106 26.1133 11.2621 26.081C11.4574 26.0393 11.5957 25.959 11.8725 25.7984C14.3076 24.3848 21 19.9444 21 13.8392V9.11272C21 7.77699 21 7.10913 20.7931 6.63504C20.5828 6.15319 20.3732 5.89685 19.9419 5.59385C19.5176 5.29573 18.6858 5.12358 17.0221 4.77929C15.1885 4.39982 13.7803 3.7146 12.493 2.72363C11.8756 2.24843 11.567 2.01083 11.3254 1.94602C11.0706 1.87764 10.9295 1.87764 10.6746 1.94602C10.433 2.01083 10.1244 2.24843 9.50703 2.72363C8.21965 3.71461 6.8115 4.39982 4.97788 4.77929C3.31422 5.12358 2.48239 5.29573 2.05806 5.59385C1.62678 5.89685 1.41723 6.15319 1.20692 6.63504C1 7.10913 1 7.77699 1 9.11272V13.8392C1 19.9444 7.69245 24.3848 10.1275 25.7984Z" stroke="#DCDCDC" stroke-width="2" stroke-linecap="round" stroke-linejoin="round"/>
</svg>