<svg width="42" height="42" viewBox="0 0 42 42" fill="none" xmlns="http://www.w3.org/2000/svg">
<path id="Icon" d="M21 1V6M21 1C9.9543 1 1 9.9543 1 21M21 1C32.0457 1 41 9.9543 41 21M21 36V41M21 41C32.0457 41 41 32.0457 41 21M21 41C9.9543 41 1 32.0457 1 21M6 21H1M41 21H36M35.1569 35.1569L31.6094 31.6094M6.84326 35.1569L10.3943 31.6058M6.84326 7L10.3162 10.4729M35.1569 7L23.9998 18M25 21C25 23.2091 23.2091 25 21 25C18.7909 25 17 23.2091 17 21C17 18.7909 18.7909 17 21 17C23.2091 17 25 18.7909 25 21Z" stroke="#F2F2F2" stroke-linecap="round" stroke-linejoin="round"/>
</svg>
