<svg width="42" height="42" viewBox="0 0 42 42" fill="none" xmlns="http://www.w3.org/2000/svg">
<path id="Icon" d="M3.68057 31.0002C1.1762 26.6603 2.4495 21.1294 6.59605 18.3206L6.60049 18.3161C9.93151 16.0651 14.3158 16.1406 17.5691 18.505L24.4333 23.496C27.6844 25.8604 32.0687 25.9359 35.4019 23.6849L35.4064 23.6804C39.5551 20.8716 40.8306 15.3362 38.3218 11.0008M31.0047 38.3195C26.6648 40.8239 21.1338 39.5506 18.325 35.404L18.3206 35.3996C16.0695 32.0686 16.1451 27.6842 18.5094 24.431L23.5004 17.5668C25.8648 14.3157 25.9404 9.93141 23.6893 6.59817L23.6804 6.59372C20.8716 2.44939 15.3362 1.17165 11.0008 3.68047M35.1418 6.85817C42.9527 14.6691 42.9527 27.3309 35.1418 35.1418C27.3309 42.9527 14.6691 42.9527 6.85817 35.1418C-0.952724 27.3309 -0.952724 14.6691 6.85817 6.85817C14.6691 -0.952724 27.3309 -0.952724 35.1418 6.85817Z" stroke="#F2F2F2" stroke-linecap="round" stroke-linejoin="round"/>
</svg>
