<svg width="42" height="42" viewBox="0 0 42 42" fill="none" xmlns="http://www.w3.org/2000/svg">
<path id="Vector" d="M21 41C19.2764 41 17.5021 40.7965 15.8292 40.2879C10.709 38.9146 6.39999 35.6084 3.71318 30.9798L3.35832 30.4202L2.14165 34.998C2.04026 35.3032 1.7361 35.5067 1.43193 35.4049C1.12776 35.3032 0.924985 34.998 1.02637 34.6928L2.69929 28.4365C2.69929 28.4365 2.85138 28.1822 2.95276 28.0805C3.10485 28.0296 3.25693 27.9788 3.40901 28.0296L9.64444 29.7081C9.9486 29.8099 10.1514 30.1151 10.05 30.4202C9.9486 30.7254 9.64444 30.9289 9.34027 30.8272L4.11874 29.403L4.67638 30.3694C7.16041 34.7437 11.216 37.8464 16.0826 39.1689C20.9493 40.4914 25.9681 39.8301 30.3278 37.2869C35.4986 34.2859 38.9965 28.9452 39.6049 22.9432C39.6049 22.638 39.909 22.3837 40.2132 22.4346C40.5174 22.4346 40.7708 22.7397 40.7201 23.0449C40.0611 29.403 36.3604 35.0489 30.8854 38.2533C27.7931 40.0336 24.3965 40.9491 20.9493 40.9491L21 41ZM1.7361 19.5353C1.7361 19.5353 1.7361 19.5353 1.6854 19.5353C1.38124 19.5353 1.12776 19.2301 1.17846 18.9249C1.83749 12.5669 5.53818 6.92098 11.0132 3.71654C15.6264 1.02073 21 0.308635 26.1708 1.68197C31.291 3.0553 35.6 6.36147 38.2868 10.9901L38.6417 11.6005L39.8583 7.02271C39.9597 6.71753 40.2639 6.51407 40.5681 6.6158C40.8722 6.71753 41.075 7.02271 40.9736 7.3279L39.3007 13.5842C39.3007 13.5842 39.1486 13.8385 39.0472 13.9402C38.8951 13.9911 38.7431 14.042 38.591 13.9911L32.3556 12.3126C32.0514 12.2109 31.8486 11.9057 31.95 11.6005C32.0514 11.2953 32.3556 11.1427 32.6597 11.1936L37.8813 12.6178L37.3236 11.6514C34.8396 7.27703 30.784 4.17431 25.9174 2.85185C21.0507 1.52938 16.0319 2.19061 11.6722 4.73382C6.39999 7.68395 2.95276 13.0247 2.29374 19.0267C2.29374 19.3318 2.04026 19.5353 1.7361 19.5353Z" fill="#F2F2F2" stroke="#F2F2F2" stroke-miterlimit="10"/>
</svg>
