<?xml version="1.0" encoding="UTF-8"?><svg id="a" xmlns="http://www.w3.org/2000/svg" viewBox="0 0 25.07 25.06"><defs><style>.b{fill:#e30613;}</style></defs><path class="b" d="M21.44,3.69C19.04,1.24,16.12,0,12.76,0,9.2,0,6.15,1.22,3.7,3.64,1.24,6.05,0,9.04,0,12.52c0,3.45,1.24,6.43,3.67,8.86,2.44,2.44,5.42,3.67,8.87,3.67s6.46-1.23,8.88-3.65c2.42-2.42,3.65-5.41,3.65-8.88s-1.22-6.38-3.63-8.83Zm-.84,6.72c-.77,.71-1.15,1.43-1.14,2.13,0,.69,.39,1.38,1.13,2.05,.92,.83,1.14,1.94,.59,2.9-.58,1.01-1.66,1.37-2.88,.95-.9-.31-1.69-.29-2.29,.06-.61,.35-1.04,1.05-1.23,2.01-.24,1.19-1.1,1.97-2.19,2-.02,0-.04,0-.06,0-1.12,0-1.99-.78-2.24-2-.19-.95-.61-1.64-1.23-1.99-.61-.35-1.41-.38-2.31-.07-1.23,.41-2.3,.05-2.88-.96-.57-1-.32-2.08,.67-2.95,.69-.61,1.06-1.3,1.06-2,0-.71-.37-1.42-1.08-2.05-.98-.87-1.21-1.97-.63-2.96,.59-1,1.64-1.33,2.89-.91,.87,.29,1.66,.26,2.28-.1,.62-.36,1.04-1.03,1.22-1.94,.25-1.26,1.11-2.04,2.24-2.04h0c1.13,0,2.01,.8,2.26,2.04,.18,.92,.59,1.59,1.18,1.94,.61,.36,1.44,.38,2.39,.07,.78-.26,1.57-.15,2.17,.29,.63,.46,.96,1.02,.94,1.93,0,.41-.17,.96-.87,1.6Z"/></svg>