<svg xmlns="http://www.w3.org/2000/svg" width="304" height="82" viewBox="0 0 304 82" fill="none">
    <path d="M0 72.0538C0 66.1693 4.09773 62.1076 9.76411 62.1076C15.4305 62.1076 19.4322 66.1053 19.5282 72.0538C19.5282 77.9384 15.6226 82 9.66807 82C3.71356 82 0 77.9384 0 72.0538Z" fill="#DCDCDC"/>
    <path d="M28.0758 18.0055C32.7178 17.2379 39.4726 16.5983 49.1407 16.5983C58.8088 16.5983 64.9874 18.2933 69.4372 21.7153C73.7911 24.9454 76.7363 30.5421 76.7363 37.0663C76.7363 43.5905 74.5594 49.0913 70.4617 52.8011C65.3395 57.3424 57.8484 59.4532 49.2047 59.4532C47.508 59.4532 46.0674 59.2613 45.043 59.2613V80.9766H28.0438V18.0055H28.0758ZM45.075 46.181C46.0354 46.2769 47.1559 46.3729 48.9806 46.3729C55.6394 46.3729 59.8012 42.9509 59.8012 37.4501C59.8012 32.7169 56.6639 29.4867 50.1331 29.4867C47.6681 29.4867 45.9393 29.6786 45.107 29.8705V46.181H45.075Z" fill="#DCDCDC"/>
    <path d="M97.6731 31.4696H81.3463V17.046H131.447V31.4696H114.832V80.9446H97.6731V31.4696Z" fill="#DCDCDC"/>
    <path d="M239.557 79.3456C237.188 80.5608 231.105 82 223.518 82C199.604 82 189.072 67.0967 189.072 50.0507C189.072 27.4719 205.591 16.0226 224.671 16.0226C231.97 16.0226 237.956 17.4298 240.613 18.869L237.284 32.3331C234.531 31.1817 230.561 30.0624 225.439 30.0624C215.675 30.0624 207.127 35.851 207.127 48.9314C207.127 60.6045 214.074 67.8003 225.823 67.8003C229.889 67.8003 234.563 67.0328 237.22 66.0094L239.589 79.3775L239.557 79.3456Z" fill="#DCDCDC"/>
    <path d="M266.032 17.046V40.6482H286.809V17.046H304V80.9446H286.809V55.6474H266.032V80.9446H248.841V17.046H266.032Z" fill="#DCDCDC"/>
    <path d="M139.323 66.4571V80.9446H182.221V66.4571H139.323Z" fill="#DCDCDC"/>
    <path d="M139.323 41.7036V56.1911H171.752V41.7036H139.323Z" fill="#DCDCDC"/>
    <path d="M139.323 16.9181V31.4376H182.221V16.9181H139.323Z" fill="#DCDCDC"/>
    <path d="M27.7237 0.351794C28.556 0.223869 29.7725 0.0959438 31.4372 0.0959438C33.1019 0.0959438 34.3505 0.415757 35.1508 1.05538C35.9191 1.66303 36.4634 2.68643 36.4634 3.86974C36.4634 5.05304 36.0792 6.07644 35.3429 6.74805C34.4145 7.64353 33.0059 8.0273 31.4052 8.0273C31.0531 8.0273 30.7329 8.0273 30.4768 7.96334V12.3128H27.7557V0.351794H27.7237ZM30.4448 5.85257C30.6689 5.91654 30.957 5.91654 31.3732 5.91654C32.8458 5.91654 33.7422 5.18097 33.7422 3.9337C33.7422 2.81435 32.9739 2.14275 31.5973 2.14275C31.0211 2.14275 30.6689 2.20671 30.4448 2.23869V5.88456V5.85257Z" fill="#DCDCDC"/>
    <path d="M65.2435 0.191888H67.9966V10.0421H72.8307V12.3448H65.2435V0.191888Z" fill="#DCDCDC"/>
    <path d="M104.46 9.21061L103.596 12.3128H100.746L104.46 0.191888H108.077L111.855 12.3448H108.91L107.981 9.24259H104.492L104.46 9.21061ZM107.533 7.16381L106.765 4.6053C106.541 3.86974 106.317 2.97426 106.157 2.27067H106.125C105.933 3.00624 105.773 3.90172 105.548 4.6053L104.844 7.16381H107.533Z" fill="#DCDCDC"/>
    <path d="M141.34 2.49454H138.074V0.191888H147.422V2.49454H144.093V12.3448H141.34V2.49454Z" fill="#DCDCDC"/>
    <path d="M175.914 0.191888H183.341V2.46256H178.667V5.21295H183.053V7.45164H178.667V12.3448H175.914V0.191888Z" fill="#DCDCDC"/>
    <path d="M223.582 6.14041C223.582 10.1381 221.181 12.5367 217.628 12.5367C214.074 12.5367 211.897 9.81825 211.897 6.36427C211.897 2.71841 214.234 0 217.82 0C221.405 0 223.582 2.78237 223.582 6.14041ZM214.81 6.30031C214.81 8.66693 215.931 10.3619 217.788 10.3619C219.644 10.3619 220.701 8.60296 220.701 6.23635C220.701 4.06162 219.644 2.17473 217.756 2.17473C215.867 2.17473 214.81 3.9337 214.81 6.30031Z" fill="#DCDCDC"/>
    <path d="M252.426 0.351794C253.323 0.223869 254.635 0.0959438 256.076 0.0959438C257.869 0.0959438 259.149 0.351794 260.013 1.05538C260.75 1.63105 261.134 2.49454 261.134 3.5819C261.134 5.117 260.046 6.20437 258.989 6.58814V6.65211C259.821 7.0039 260.302 7.80343 260.622 8.92278C261.006 10.298 261.39 11.8651 261.614 12.3448H258.797C258.605 11.993 258.317 11.0016 257.933 9.53042C257.612 8.0273 257.1 7.61154 255.98 7.57956H255.147V12.3448H252.426V0.351794ZM255.147 5.56474H256.236C257.612 5.56474 258.413 4.89314 258.413 3.80577C258.413 2.71841 257.644 2.14275 256.396 2.11076C255.724 2.11076 255.34 2.17473 255.147 2.20671V5.59672V5.56474Z" fill="#DCDCDC"/>
    <path d="M300.447 7.67551C300.382 6.20437 300.35 4.4454 300.35 2.68643H300.286C299.902 4.22153 299.39 5.9805 298.942 7.38768L297.469 12.1209H295.324L294.012 7.41966C293.628 5.9805 293.211 4.25351 292.923 2.68643H292.891C292.827 4.31747 292.763 6.20437 292.667 7.70749L292.443 12.3128H289.882L290.65 0.159906H294.3L295.484 4.22153C295.869 5.62871 296.253 7.13183 296.509 8.57098H296.573C296.925 7.16381 297.341 5.56474 297.725 4.22153L299.038 0.191888H302.623L303.296 12.3448H300.607L300.414 7.70749L300.447 7.67551Z" fill="#DCDCDC"/>
</svg>